<svg width="94" height="67" viewBox="0 0 94 67" fill="none" xmlns="http://www.w3.org/2000/svg">
<path d="M18.0987 11.8167C18.6154 11.9793 19.0747 12.1994 19.4766 12.4769C19.888 12.7544 20.2086 13.0606 20.4382 13.3955C20.6679 13.7208 20.8544 14.0748 20.998 14.4576C21.1511 14.8403 21.2324 15.223 21.242 15.6058C21.2611 15.9885 21.2515 16.3665 21.2133 16.7396C21.108 17.5147 20.8162 18.2706 20.3378 19.0074C19.8689 19.7346 19.2757 20.3661 18.558 20.9019C17.85 21.4378 17.0462 21.8923 16.1468 22.2654C15.2473 22.6386 14.3192 22.8587 13.3623 22.9256C12.4151 23.0022 11.4582 22.94 10.4918 22.7391C9.42971 22.5094 8.54942 22.1123 7.85092 21.5478C7.16199 20.9737 6.70749 20.347 6.48741 19.6676C6.27691 18.9787 6.25777 18.2658 6.43 17.529C6.6118 16.7827 6.98976 16.1177 7.56387 15.534C7.57343 15.5244 7.583 15.5101 7.59257 15.491C7.61171 15.4718 7.64998 15.4479 7.70739 15.4192C7.7648 15.3905 7.827 15.3809 7.89398 15.3905C7.95139 15.4001 7.98488 15.4192 7.99445 15.4479C8.01358 15.467 8.01358 15.4862 7.99445 15.5053L7.96574 15.534C7.63084 15.8689 7.44426 16.199 7.40599 16.5244C7.31987 17.1559 7.53038 17.7587 8.0375 18.3328C8.54463 18.8973 9.24313 19.3853 10.133 19.7968C11.0324 20.2082 12.0802 20.5527 13.2762 20.8302C15.1708 21.2703 16.7544 21.2464 18.027 20.7584C19.2996 20.2704 20.0124 19.3997 20.1655 18.1462C20.2803 17.2468 20.0316 16.5052 19.4192 15.9215C18.8164 15.3283 17.7543 14.8594 16.2329 14.515C16.0224 14.4671 14.9603 14.2088 13.0466 13.7399C11.1425 13.2615 10.0899 12.9984 9.889 12.9505L9.87465 12.9362C8.53506 12.6204 7.53038 12.0989 6.86058 11.3717C6.20036 10.6445 5.95637 9.80251 6.1286 8.84567C6.27212 7.83141 6.71706 6.86021 7.4634 5.93207C8.20974 4.99437 9.18093 4.2241 10.377 3.62129C11.573 3.00891 12.9413 2.6788 14.4819 2.63096C16.0319 2.58311 17.6825 2.94672 19.4335 3.72176L17.9409 8.7452C17.9313 8.80261 17.9026 8.83132 17.8547 8.83132L17.783 8.75955C17.783 8.74998 17.8021 8.55383 17.8404 8.17109L17.8978 7.59699C17.8978 6.99417 17.7973 6.43442 17.5964 5.91772C17.3955 5.40103 17.1419 4.98001 16.8357 4.65469C16.5391 4.32936 16.2759 4.08058 16.0463 3.90835C15.8167 3.72655 15.6062 3.5878 15.4148 3.49212C14.2379 2.95628 13.171 2.83189 12.2141 3.11895C11.2573 3.39643 10.4631 3.89399 9.83159 4.61163C9.20964 5.32926 8.84604 6.09952 8.74079 6.92241C8.72165 7.06594 8.7073 7.16162 8.69773 7.20946C8.69773 7.2573 8.69294 7.36734 8.68337 7.53957C8.67381 7.70224 8.67859 7.83141 8.69773 7.9271C8.71686 8.01321 8.75035 8.14717 8.7982 8.32897C8.84604 8.5012 8.90823 8.64473 8.98478 8.75955C9.0709 8.86481 9.18572 8.99398 9.32925 9.14708C9.47277 9.30017 9.63544 9.43413 9.81724 9.54895C10.0086 9.6542 10.243 9.76424 10.5205 9.87906C10.798 9.98431 11.1042 10.0752 11.4391 10.1518C11.5348 10.1805 12.128 10.3288 13.2188 10.5967C14.3096 10.855 15.3574 11.1134 16.3621 11.3717C17.3763 11.6205 17.9552 11.7688 18.0987 11.8167Z" fill="#F9F5EF"/>
<path d="M31.0879 9.24754H25.2177V18.6055C25.2177 19.6197 25.3755 20.3948 25.6913 20.9306C26.0071 21.4569 26.452 21.7009 27.0261 21.6626C27.5619 21.6148 28.0499 21.3947 28.4901 21.0024C28.9398 20.6101 29.3847 19.9786 29.8249 19.1078C29.8823 19.0026 29.9445 18.9787 30.0115 19.0361C30.0497 19.0839 30.0545 19.1365 30.0258 19.194C29.4039 20.2943 28.6767 21.2225 27.8442 21.9784C27.0117 22.7343 26.1267 23.1122 25.189 23.1122C24.2225 23.1122 23.5288 22.7869 23.1078 22.1363C22.6964 21.4856 22.4907 20.4761 22.4907 19.1078V9.24754H20.6535C20.6439 9.24754 20.6344 9.23798 20.6248 9.21884C20.6152 9.1997 20.6152 9.18056 20.6248 9.16143C20.6248 9.13272 20.6344 9.1088 20.6535 9.08966L25.0454 6.14736C25.1603 6.07082 25.2177 6.08995 25.2177 6.20477V8.93178H31.0879V9.24754Z" fill="#F9F5EF"/>
<path d="M41.551 3.23377H44.5364L44.4359 20.8445C44.3785 23.9351 43.4504 26.3225 41.6515 28.0065C40.4554 29.1451 39.068 29.8006 37.4892 29.9728C36.1879 30.1163 35.1258 29.9106 34.3029 29.3557C33.48 28.7815 33.1786 28.0065 33.3987 27.0305C33.6666 25.8536 34.6952 24.5953 36.4845 23.2558L36.5993 23.3562C35.4894 24.7437 35.054 26.0785 35.2932 27.3606C35.4655 28.2601 35.9104 28.9251 36.628 29.3557C37.3744 29.8054 38.1399 29.8436 38.9245 29.4705C39.9674 28.9825 40.7042 27.906 41.1348 26.2411C41.4123 25.1982 41.5367 23.9686 41.508 22.5525V5.73114C41.4697 5.18573 41.4171 4.75515 41.3501 4.4394C41.2927 4.12364 41.197 3.88921 41.063 3.73611C40.9291 3.58302 40.7903 3.49212 40.6468 3.46341C40.5128 3.42514 40.3119 3.406 40.044 3.406H38.9532C38.8958 3.406 38.8623 3.39165 38.8527 3.36294C38.8336 3.33424 38.8336 3.30553 38.8527 3.27683C38.8718 3.23855 38.9053 3.21942 38.9532 3.21942L41.551 3.23377Z" fill="#F9F5EF"/>
<path d="M59.9799 13.9409C60.2382 15.1178 60.1808 16.3282 59.8076 17.5721C59.444 18.8064 58.7694 19.9164 57.7839 20.9019C56.8079 21.8779 55.631 22.519 54.2531 22.8252C52.2342 23.2749 50.4353 23.0166 48.8565 22.0501C47.2777 21.0837 46.2635 19.5863 45.8138 17.5577C45.5267 16.2564 45.565 14.9838 45.9286 13.7399C46.3018 12.4865 46.9811 11.3957 47.9667 10.4675C48.9522 9.53938 50.1483 8.91743 51.5548 8.60167C53.5833 8.15196 55.3774 8.41509 56.9371 9.39107C58.5063 10.3575 59.5206 11.8741 59.9799 13.9409ZM54.6407 22.4233C55.9324 22.1363 56.7792 21.3373 57.1811 20.0264C57.5925 18.706 57.559 17.0458 57.0806 15.046C56.8892 14.1753 56.607 13.3476 56.2338 12.563C55.8702 11.7784 55.4396 11.0895 54.9421 10.4962C54.4541 9.89341 53.8895 9.44848 53.2485 9.16143C52.6074 8.86481 51.9519 8.79304 51.2821 8.94614C48.6221 9.52981 47.7801 12.0224 48.7561 16.4239C48.9474 17.285 49.2249 18.1031 49.5885 18.8782C49.9521 19.6437 50.3827 20.323 50.8803 20.9163C51.3778 21.5095 51.9519 21.9497 52.6026 22.2367C53.2628 22.5142 53.9422 22.5764 54.6407 22.4233Z" fill="#F9F5EF"/>
<path d="M63.9412 0.00441621C64.0369 -0.0147207 64.0847 0.0283374 64.0847 0.13359V22.6386H61.1998V2.97542L63.9412 0.00441621ZM69.8402 8.21415C70.9405 8.21415 71.8113 8.57775 72.4523 9.30495C73.0934 10.0322 73.414 11.1756 73.414 12.7352V22.5955H70.6152V13.4242C70.6152 11.8454 70.4334 10.7211 70.0698 10.0513C69.7062 9.3815 69.0747 9.04661 68.1752 9.04661C67.3045 9.04661 66.5008 9.38629 65.764 10.0656C65.0272 10.745 64.4675 11.6444 64.0847 12.764V11.1134C64.9172 10.214 65.8358 9.50589 66.8404 8.9892C67.8451 8.4725 68.845 8.21415 69.8402 8.21415Z" fill="#F9F5EF"/>
<path d="M78.2078 8.54426V11.1421L78.2221 12.7783V22.6242H75.3372V11.4004L78.0642 8.42944C78.1599 8.4103 78.2078 8.44858 78.2078 8.54426ZM83.9775 8.24286C85.0779 8.24286 85.9439 8.60646 86.5754 9.33366C87.2165 10.0609 87.537 11.2043 87.537 12.764V22.5955H84.7526L84.7382 13.4529C84.7382 11.8741 84.5564 10.7498 84.1928 10.08C83.8292 9.41021 83.1977 9.07531 82.2983 9.07531C81.4276 9.07531 80.6238 9.41499 79.887 10.0944C79.1598 10.7737 78.6049 11.6731 78.2221 12.7927V11.1565C79.0546 10.257 79.9731 9.54895 80.9778 9.03225C81.9921 8.50599 82.992 8.24286 83.9775 8.24286Z" fill="#F9F5EF"/>
<path d="M15.5152 46.9299C15.5248 46.8725 15.5535 46.8342 15.6014 46.815C15.6588 46.7959 15.7114 46.8007 15.7592 46.8294C15.8071 46.8485 15.8262 46.8916 15.8167 46.9586L15.2138 54.178H2.6696V37.2992C2.63133 36.7442 2.5787 36.3089 2.51172 35.9931C2.45431 35.6774 2.35862 35.4477 2.22467 35.3042C2.09071 35.1511 1.95196 35.0554 1.80844 35.0171C1.67448 34.9789 1.47354 34.9597 1.20563 34.9597H0.114821C0.0574107 34.9597 0.0239211 34.9454 0.0143527 34.9167C-0.00478423 34.8784 -0.00478423 34.8449 0.0143527 34.8162C0.0334896 34.7779 0.0669792 34.7588 0.114821 34.7588L5.82719 34.8449V53.8622C6.44914 53.8622 7.20026 53.867 8.08056 53.8766C8.97043 53.8766 9.44406 53.8766 9.50148 53.8766C10.4775 53.8766 11.42 53.5034 12.329 52.7571C13.238 52.0012 13.9652 51.0969 14.5106 50.0444C15.0655 48.9823 15.4004 47.9489 15.5152 46.9442V46.9299Z" fill="#F9F5EF"/>
<path d="M30.8726 46.7433C30.93 46.5902 30.9874 46.5328 31.0449 46.5711C31.1023 46.5998 31.107 46.6763 31.0592 46.8007C30.6095 48.1211 30.0067 49.3603 29.2508 50.518C28.4949 51.6663 27.6433 52.58 26.696 53.2594C25.4234 54.1397 24.079 54.5798 22.6629 54.5798C20.6726 54.5798 19.0747 53.9627 17.8691 52.7284C16.673 51.4845 16.075 49.8722 16.075 47.8915C16.075 46.8964 16.2855 45.9204 16.7065 44.9636C17.1371 43.9971 17.6969 43.1647 18.3858 42.4662C19.0843 41.7581 19.8976 41.1888 20.8257 40.7582C21.7539 40.3276 22.6964 40.1123 23.6532 40.1123C25.8348 40.1123 27.2366 40.763 27.8586 42.0643C27.9447 42.2557 28.0069 42.4279 28.0451 42.581C28.0451 42.6001 28.0451 42.6241 28.0451 42.6528C28.0547 42.6815 28.0643 42.7054 28.0738 42.7245C28.0834 42.7628 28.0882 42.8154 28.0882 42.8824C28.1647 43.3226 28.1456 43.7101 28.0308 44.045C27.9255 44.3703 27.7629 44.6287 27.5428 44.82C27.3323 45.0114 27.0309 45.1788 26.6386 45.3224C26.2558 45.4659 25.8827 45.5759 25.5191 45.6525C25.165 45.729 24.7249 45.8104 24.1986 45.8965C24.1891 45.8965 24.1795 45.8965 24.1699 45.8965C22.438 46.1835 20.5052 46.2936 18.3714 46.2266V46.4275C18.3714 48.1786 18.9503 49.6186 20.1081 50.7477C21.2659 51.8768 22.7203 52.4413 24.4713 52.4413C27.3897 52.4413 29.5235 50.542 30.8726 46.7433ZM18.3858 45.9395V45.9539C18.9695 46.0113 19.8067 46.0113 20.8975 45.9539C21.9883 45.8869 23.0408 45.7721 24.0551 45.6094C24.4187 45.552 24.7105 45.4085 24.9306 45.1788C25.1603 44.9492 25.3086 44.6956 25.3755 44.4182C25.4425 44.1311 25.4808 43.8488 25.4904 43.5713C25.5095 43.2843 25.4999 43.0499 25.4617 42.8681L25.4186 42.581C25.2942 42.0452 25.0024 41.5907 24.5431 41.2175C24.0934 40.8348 23.5049 40.6434 22.7777 40.6434C21.7156 40.6434 20.8114 40.9735 20.065 41.6337C19.3187 42.294 18.8164 43.246 18.558 44.4899L18.5293 44.7052C18.5197 44.7243 18.5102 44.7578 18.5006 44.8057C18.491 44.8439 18.4863 44.8727 18.4863 44.8918C18.4767 44.9683 18.4671 45.0497 18.4575 45.1358C18.448 45.2219 18.4384 45.3176 18.4288 45.4228C18.4193 45.5281 18.4097 45.6094 18.4001 45.6668C18.4001 45.6955 18.3954 45.7386 18.3858 45.796C18.3858 45.8534 18.3858 45.9013 18.3858 45.9395Z" fill="#F9F5EF"/>
<path d="M39.599 40.873H33.7288V50.231C33.7288 51.2452 33.8867 52.0203 34.2024 52.5561C34.5182 53.0824 34.9631 53.3264 35.5372 53.2881C36.0731 53.2403 36.5611 53.0202 37.0012 52.6279C37.4509 52.2356 37.8959 51.6041 38.336 50.7333C38.3934 50.6281 38.4556 50.6042 38.5226 50.6616C38.5609 50.7094 38.5657 50.762 38.537 50.8194C37.915 51.9198 37.1878 52.848 36.3553 53.6039C35.5229 54.3598 34.6378 54.7377 33.7001 54.7377C32.7337 54.7377 32.04 54.4124 31.619 53.7617C31.2075 53.1111 31.0018 52.1016 31.0018 50.7333V40.873H29.1646C29.1551 40.873 29.1455 40.8635 29.1359 40.8443C29.1264 40.8252 29.1264 40.8061 29.1359 40.7869C29.1359 40.7582 29.1455 40.7343 29.1646 40.7152L33.5566 37.7729C33.6714 37.6963 33.7288 37.7154 33.7288 37.8303V40.5573H39.599V40.873Z" fill="#F9F5EF"/>
<path d="M48.8135 40.873H42.9432V50.231C42.9432 51.2452 43.1011 52.0203 43.4169 52.5561C43.7326 53.0824 44.1776 53.3264 44.7517 53.2881C45.2875 53.2403 45.7755 53.0202 46.2156 52.6279C46.6654 52.2356 47.1103 51.6041 47.5504 50.7333C47.6078 50.6281 47.67 50.6042 47.737 50.6616C47.7753 50.7094 47.7801 50.762 47.7514 50.8194C47.1294 51.9198 46.4022 52.848 45.5698 53.6039C44.7373 54.3598 43.8522 54.7377 42.9145 54.7377C41.9481 54.7377 41.2544 54.4124 40.8334 53.7617C40.4219 53.1111 40.2162 52.1016 40.2162 50.7333V40.873H38.3791C38.3695 40.873 38.3599 40.8635 38.3504 40.8443C38.3408 40.8252 38.3408 40.8061 38.3504 40.7869C38.3504 40.7582 38.3599 40.7343 38.3791 40.7152L42.771 37.7729C42.8858 37.6963 42.9432 37.7154 42.9432 37.8303V40.5573H48.8135V40.873Z" fill="#F9F5EF"/>
<path d="M50.421 40.2272L49.201 36.7538C49.067 36.3519 49.1149 35.9788 49.3445 35.6343C49.5837 35.2803 49.9043 35.1033 50.3061 35.1033C50.6889 35.1033 50.9951 35.2707 51.2247 35.6056C51.4544 35.9309 51.5166 36.2897 51.4113 36.6821L50.421 40.2272ZM51.7414 40.1985V54.221H48.8565V43.0403L51.5835 40.0693C51.6888 40.0502 51.7414 40.0932 51.7414 40.1985Z" fill="#F9F5EF"/>
<path d="M57.0089 40.1698V42.7676L57.0232 44.4038V54.2497H54.1383V43.0259L56.8653 40.0549C56.961 40.0358 57.0089 40.0741 57.0089 40.1698ZM62.7786 39.8683C63.879 39.8683 64.7449 40.232 65.3765 40.9592C66.0176 41.6864 66.3381 42.8298 66.3381 44.3894V54.221H63.5537L63.5393 45.0784C63.5393 43.4996 63.3575 42.3753 62.9939 41.7055C62.6303 41.0357 61.9988 40.7008 61.0994 40.7008C60.2286 40.7008 59.4249 41.0405 58.6881 41.7198C57.9609 42.3992 57.4059 43.2986 57.0232 44.4182V42.7819C57.8557 41.8825 58.7742 41.1744 59.7789 40.6577C60.7932 40.1315 61.7931 39.8683 62.7786 39.8683Z" fill="#F9F5EF"/>
<path d="M80.8917 46.284C80.8917 46.3223 80.8917 46.3749 80.8917 46.4419C80.9013 46.5089 80.9061 46.5615 80.9061 46.5998L80.8917 47.7049V48.8531V48.8388L80.8774 49.1258C80.8678 49.9487 80.863 50.8338 80.863 51.7811C80.8726 52.7188 80.8726 53.7043 80.863 54.7377C80.863 55.7807 80.8534 56.7423 80.8343 57.6226C80.8152 58.5125 80.7721 59.3114 80.7051 60.0195C80.6381 60.7371 80.5473 61.2395 80.4324 61.5265C80.1262 62.3781 79.4947 63.1771 78.5379 63.9234C77.5906 64.6794 76.5668 65.2822 75.4664 65.7319C74.366 66.1912 73.28 66.5165 72.2083 66.7079C68.7924 67.3107 66.6443 66.9806 65.764 65.7175C65.3812 65.1147 65.2569 64.5119 65.3908 63.9091C65.6109 62.7704 66.7495 61.3495 68.8068 59.6463C69.5722 58.9957 70.1272 58.5173 70.4717 58.2111C70.8257 57.9145 71.3759 57.4073 72.1222 56.6897C72.8781 55.9816 73.524 55.331 74.0598 54.7377L75.2511 53.446C75.232 53.4556 75.1985 53.4747 75.1506 53.5034C75.1124 53.5321 75.0837 53.556 75.0645 53.5752C74.1747 54.111 73.2657 54.3789 72.3375 54.3789C71.0075 54.3789 69.9119 53.9675 69.0508 53.1446C68.1896 52.3121 67.7686 51.1113 67.7877 49.5421C67.7781 48.3364 68.0317 47.1356 68.5484 45.9395C69.0651 44.7435 69.754 43.7005 70.6152 42.8107C71.4764 41.9112 72.5097 41.2079 73.7154 40.7008C74.9306 40.1841 76.1745 39.9832 77.4471 40.098C78.1838 40.165 78.8201 40.5047 79.356 41.117L80.6334 40.1123H80.8917V46.284ZM78.3082 50.3171V49.8578C78.2221 50.0396 78.1264 50.2166 78.0212 50.3889C77.7915 50.7907 77.5715 51.1304 77.361 51.4079C77.0835 51.7811 76.7677 52.1447 76.4137 52.4987V52.5131L74.6483 54.5511C74.2177 55.0391 73.6388 55.6707 72.9116 56.4457C72.194 57.2303 71.596 57.8953 71.1175 58.4407C70.6391 58.9957 70.2468 59.5076 69.9406 59.9765C69.156 61.096 68.668 62.0911 68.4766 62.9618C68.3235 63.7082 68.4479 64.3827 68.8498 64.9855C69.6727 66.2199 71.1128 66.6409 73.17 66.2486C74.0981 66.0763 74.9401 65.6458 75.696 64.9568C76.4519 64.2679 77.0643 63.3541 77.5332 62.2155C77.6384 61.938 77.7293 61.5074 77.8059 60.9237C77.892 60.3496 77.959 59.5889 78.0068 58.6417C78.0642 57.7039 78.1025 56.8667 78.1216 56.1299C78.1504 55.3932 78.1838 54.3837 78.2221 53.1015C78.2604 51.8098 78.2891 50.8816 78.3082 50.3171ZM78.3082 49.4272V45.021C78.3082 43.3943 78.1025 42.2365 77.6911 41.5476C77.2796 40.8491 76.5716 40.4999 75.5669 40.4999C74.1699 40.4999 72.9595 41.1792 71.9356 42.5379C70.9214 43.8967 70.4143 45.5377 70.4143 47.4609C70.4143 49.2119 70.7492 50.5228 71.4189 51.3936C72.0887 52.2643 73.0169 52.6996 74.2034 52.6996C75.0167 52.6996 75.7869 52.4078 76.5141 51.8241C77.2413 51.2405 77.8394 50.4415 78.3082 49.4272Z" fill="#F9F5EF"/>
<path d="M91.5558 46.4132C92.0533 46.5567 92.4791 46.7816 92.8332 47.0877C93.1968 47.3939 93.4503 47.7241 93.5938 48.0781C93.7469 48.4321 93.857 48.8053 93.924 49.1976C93.9909 49.5899 93.9862 49.9487 93.9096 50.274C93.7661 51.2118 93.2637 52.0681 92.4026 52.8432C91.5414 53.6086 90.4793 54.1588 89.2163 54.4937C87.9532 54.8382 86.7237 54.8765 85.5276 54.6086C84.8291 54.4746 84.2311 54.2497 83.7335 53.934C83.236 53.6086 82.8676 53.2498 82.6284 52.8575C82.3988 52.4652 82.2744 52.0442 82.2552 51.5945C82.2457 51.1448 82.3413 50.719 82.5423 50.3171C82.7528 49.9057 83.0829 49.5277 83.5326 49.1832C83.9823 48.8292 84.5182 48.5613 85.1401 48.3795L85.1975 48.5661C84.8244 48.7287 84.5564 48.944 84.3938 49.2119C84.2311 49.4799 84.1211 49.81 84.0637 50.2023C83.9584 50.9199 84.2024 51.5323 84.7956 52.0394C85.3889 52.5466 86.3601 52.9436 87.7092 53.2307C89.1924 53.5465 90.4267 53.5321 91.4122 53.1876C92.4074 52.8336 92.9671 52.2021 93.0915 51.2931C93.1776 50.6903 92.9815 50.2406 92.503 49.9439C92.0246 49.6377 91.1443 49.3507 89.8621 49.0828C86.6376 48.346 84.9822 47.968 84.8961 47.9489L84.8818 47.9346C83.8866 47.7145 83.1403 47.2839 82.6427 46.6428C82.1548 46.0017 81.9825 45.3176 82.1261 44.5904C82.2791 43.5953 82.8389 42.6863 83.8053 41.8634C84.7717 41.0309 86.0013 40.4807 87.494 40.2128C88.9962 39.9353 90.6707 40.1602 92.5174 40.8874L92.259 45.9108V45.9252C92.259 45.9347 92.2495 45.9443 92.2303 45.9539C92.2208 45.9635 92.1969 45.9682 92.1586 45.9682C92.1203 45.9682 92.0916 45.9635 92.0725 45.9539C92.0533 45.9443 92.0438 45.93 92.0438 45.9108V45.8965C92.0438 45.5233 91.9816 45.1023 91.8572 44.6334C91.7328 44.155 91.551 43.667 91.3118 43.1695C91.0726 42.6719 90.7377 42.2174 90.3071 41.806C89.8765 41.385 89.3933 41.0835 88.8575 40.9017C87.537 40.4712 86.4558 40.5094 85.6138 41.0166C84.7813 41.5141 84.2981 42.2413 84.1641 43.1982C84.145 43.3608 84.1306 43.4852 84.1211 43.5713C84.1211 43.6479 84.1498 43.7818 84.2072 43.9732C84.2646 44.155 84.3603 44.3081 84.4942 44.4325C84.6378 44.5569 84.8674 44.6956 85.1832 44.8487C85.4989 44.9923 85.8865 45.1119 86.3457 45.2075C89.5799 45.9347 91.3166 46.3366 91.5558 46.4132Z" fill="#F9F5EF"/>
</svg>
