<svg width="24" height="24" viewBox="0 0 24 24" fill="none" xmlns="http://www.w3.org/2000/svg">
<g clip-path="url(#clip0_11_142)">
<path fill-rule="evenodd" clip-rule="evenodd" d="M17.5125 13.985C17.2642 13.8608 16.0467 13.2625 15.82 13.1792C15.5933 13.0967 15.4283 13.0558 15.2625 13.3042C15.0975 13.5508 14.6233 14.1092 14.4792 14.2742C14.3342 14.44 14.19 14.46 13.9425 14.3367C13.695 14.2117 12.8967 13.9508 11.9508 13.1075C11.215 12.4508 10.7175 11.64 10.5733 11.3917C10.4292 11.1442 10.5575 11.01 10.6817 10.8867C10.7933 10.7758 10.9292 10.5975 11.0533 10.4533C11.1775 10.3083 11.2183 10.205 11.3008 10.0392C11.3842 9.87416 11.3425 9.72999 11.28 9.60582C11.2183 9.48165 10.7233 8.26249 10.5167 7.76665C10.3158 7.28416 10.1117 7.34999 9.96 7.34165C9.815 7.33499 9.65 7.33332 9.485 7.33332C9.32 7.33332 9.05167 7.39499 8.825 7.64332C8.5975 7.89082 7.95833 8.48999 7.95833 9.70916C7.95833 10.9275 8.845 12.105 8.96917 12.2708C9.09333 12.4358 10.715 14.9375 13.1992 16.01C13.7908 16.265 14.2517 16.4175 14.6108 16.5308C15.2042 16.72 15.7442 16.6933 16.1708 16.6292C16.6458 16.5583 17.6358 16.03 17.8425 15.4517C18.0483 14.8733 18.0483 14.3775 17.9867 14.2742C17.925 14.1708 17.76 14.1092 17.5117 13.985H17.5125ZM12.9942 20.1542H12.9908C11.5154 20.1544 10.067 19.7578 8.7975 19.0058L8.4975 18.8275L5.37917 19.6458L6.21167 16.6058L6.01583 16.2942C5.19095 14.9811 4.75441 13.4615 4.75667 11.9108C4.75833 7.36915 8.45333 3.67416 12.9975 3.67416C15.1975 3.67416 17.2658 4.53249 18.8208 6.08916C19.5878 6.85297 20.1957 7.76129 20.6094 8.76157C21.0231 9.76185 21.2343 10.8342 21.2308 11.9167C21.2292 16.4583 17.5342 20.1542 12.9942 20.1542V20.1542ZM20.0042 4.90665C19.086 3.98242 17.9935 3.2496 16.7901 2.75066C15.5866 2.25171 14.2961 1.99656 12.9933 1.99999C7.53167 1.99999 3.085 6.44582 3.08333 11.91C3.0808 13.6489 3.53698 15.3578 4.40583 16.8642L3 22L8.25333 20.6217C9.70656 21.4134 11.3351 21.8283 12.99 21.8283H12.9942C18.4558 21.8283 22.9025 17.3825 22.9042 11.9175C22.9082 10.6152 22.654 9.32507 22.1562 8.12168C21.6584 6.91829 20.927 5.82555 20.0042 4.90665" fill="#F9F5EF"/>
</g>
<defs>
<clipPath id="clip0_11_142">
<rect width="20" height="20" fill="white" transform="translate(3 2)"/>
</clipPath>
</defs>
</svg>
